<svg width="25" height="25" viewBox="0 0 25 25" fill="none" xmlns="http://www.w3.org/2000/svg">
<path d="M2.67857 5.35855H0.892857C0.656057 5.35855 0.428955 5.26448 0.261512 5.09705C0.0940686 4.92962 0 4.70254 0 4.46575C0 4.22897 0.0940686 4.00188 0.261512 3.83445C0.428955 3.66702 0.656057 3.57296 0.892857 3.57296H8.03571V0.892793C8.03571 0.65601 8.12978 0.428924 8.29723 0.261493C8.46467 0.0940619 8.69177 0 8.92857 0H16.0714C16.3082 0 16.5353 0.0940619 16.7028 0.261493C16.8702 0.428924 16.9643 0.65601 16.9643 0.892793V3.57296H24.1071C24.3439 3.57296 24.571 3.66702 24.7385 3.83445C24.9059 4.00188 25 4.22897 25 4.46575C25 4.70254 24.9059 4.92962 24.7385 5.09705C24.571 5.26448 24.3439 5.35855 24.1071 5.35855H22.3214V24.1072C22.3214 24.344 22.2274 24.5711 22.0599 24.7385C21.8925 24.9059 21.6654 25 21.4286 25H3.57143C3.33463 25 3.10753 24.9059 2.94008 24.7385C2.77264 24.5711 2.67857 24.344 2.67857 24.1072V5.35855ZM15.1786 3.57296V1.78737H9.82143V3.57296H15.1786ZM4.46429 23.2144H20.5357V5.35855H4.46429V23.2144ZM9.82143 19.6432C9.58463 19.6432 9.35753 19.5492 9.19008 19.3817C9.02264 19.2143 8.92857 18.9872 8.92857 18.7504V9.82251C8.92857 9.58573 9.02264 9.35864 9.19008 9.19121C9.35753 9.02378 9.58463 8.92972 9.82143 8.92972C10.0582 8.92972 10.2853 9.02378 10.4528 9.19121C10.6202 9.35864 10.7143 9.58573 10.7143 9.82251V18.7504C10.7143 18.9872 10.6202 19.2143 10.4528 19.3817C10.2853 19.5492 10.0582 19.6432 9.82143 19.6432ZM15.1786 19.6432C14.9418 19.6432 14.7147 19.5492 14.5472 19.3817C14.3798 19.2143 14.2857 18.9872 14.2857 18.7504V9.82251C14.2857 9.58573 14.3798 9.35864 14.5472 9.19121C14.7147 9.02378 14.9418 8.92972 15.1786 8.92972C15.4154 8.92972 15.6425 9.02378 15.8099 9.19121C15.9774 9.35864 16.0714 9.58573 16.0714 9.82251V18.7504C16.0714 18.9872 15.9774 19.2143 15.8099 19.3817C15.6425 19.5492 15.4154 19.6432 15.1786 19.6432Z" fill="#404040"/>
</svg>
