<svg width="24" height="26" viewBox="0 0 24 26" fill="none" xmlns="http://www.w3.org/2000/svg">
<path d="M6.3781 12.3082V12.2941M17.6219 12.3082V12.2941M6.3781 8.05882V6.64706C6.3781 5.14936 6.9704 3.71302 8.02471 2.65398C9.07902 1.59496 10.5089 1 12 1C13.4911 1 14.921 1.59496 15.9752 2.65398C17.0296 3.71302 17.6219 5.14936 17.6219 6.64706V8.05882M6.3781 8.05882H4.74813C3.28618 8.05882 2.0683 9.18445 1.94689 10.6479L1.0099 21.942C0.873334 23.5881 2.16662 25 3.81114 25H20.1888C21.8334 25 23.1267 23.5881 22.9901 21.942L22.0531 10.6479C21.9316 9.18445 20.7138 8.05882 19.2518 8.05882H17.6219M6.3781 8.05882H17.6219" stroke="#323232" stroke-width="2" stroke-linecap="round" stroke-linejoin="round"/>
</svg>
