<svg width="43" height="43" viewBox="0 0 43 43" fill="none" xmlns="http://www.w3.org/2000/svg">
<path d="M40.9992 21.4996H36.6659C34.2727 21.4996 32.3327 23.4396 32.3327 25.8328V30.1661C32.3327 32.5592 34.2727 34.4993 36.6659 34.4993C39.0591 34.4993 40.9992 32.5592 40.9992 30.1661V21.4996ZM40.9992 21.4996C40.9992 10.7303 32.2689 2 21.4996 2C10.7303 2 2 10.7303 2 21.4996M2 21.4996V30.1661C2 32.5592 3.94006 34.4993 6.33324 34.4993C8.72642 34.4993 10.6665 32.5592 10.6665 30.1661V25.8328C10.6665 23.4396 8.72642 21.4996 6.33324 21.4996H2Z" stroke="black" stroke-width="4" stroke-linecap="round" stroke-linejoin="round"/>
<path d="M41.0003 25.8341V34.5006C41.0003 38.8338 39.5559 41.0004 36.6671 41.0004C33.7783 41.0004 30.1672 41.0004 25.834 41.0004" stroke="black" stroke-width="4" stroke-linecap="round" stroke-linejoin="round"/>
</svg>
