<svg width="52" height="52" viewBox="0 0 52 52" fill="none" xmlns="http://www.w3.org/2000/svg">
<path d="M11.5556 9.69943C15.4845 6.21372 20.5569 4.29253 25.8092 4.30081C37.6884 4.30081 47.3177 13.9302 47.3177 25.8093C47.3247 30.2054 45.9783 34.4971 43.4613 38.1014L37.6389 25.8093H43.016C43.0161 22.388 41.9963 19.0445 40.0868 16.2056C38.1774 13.3668 35.465 11.1617 32.2963 9.87184C29.1275 8.58202 25.6461 8.26612 22.2969 8.96448C18.9477 9.66283 15.8827 11.3437 13.4935 13.7925L11.5577 9.70158L11.5556 9.69943ZM40.0629 41.9191C36.134 45.4048 31.0616 47.326 25.8092 47.3177C13.9301 47.3177 4.30078 37.6884 4.30078 25.8093C4.30078 21.2387 5.72679 17.0016 8.15725 13.5172L13.9796 25.8093H8.60248C8.60241 29.2305 9.62224 32.5741 11.5317 35.4129C13.4411 38.2517 16.1535 40.4569 19.3222 41.7467C22.491 43.0365 25.9724 43.3524 29.3216 42.6541C32.6708 41.9557 35.7358 40.2748 38.125 37.8261L40.0608 41.917L40.0629 41.9191ZM28.8505 31.8919L22.768 25.8093L16.6832 31.8919L13.6419 28.8506L22.768 19.7267L28.8505 25.8093L34.9353 19.7267L37.9766 22.768L28.8505 31.8919Z" fill="black"/>
</svg>
