<svg width="22" height="26" viewBox="0 0 22 26" fill="none" xmlns="http://www.w3.org/2000/svg">
<path d="M11.2648 10.6C13.9158 10.6 16.0648 8.45097 16.0648 5.8C16.0648 3.14903 13.9158 1 11.2648 1C8.61388 1 6.46484 3.14903 6.46484 5.8C6.46484 8.45097 8.61388 10.6 11.2648 10.6Z" stroke="#323232" stroke-width="2"/>
<path d="M20.863 20.2012C20.866 20.0041 20.866 19.804 20.866 19.6012C20.866 16.6188 16.568 14.2012 11.266 14.2012C5.96408 14.2012 1.66602 16.6188 1.66602 19.6012C1.66602 22.5835 1.66602 25.0012 11.266 25.0012C13.9432 25.0012 15.8738 24.8131 17.266 24.4773" stroke="#323232" stroke-width="2" stroke-linecap="round"/>
</svg>
