<svg width="51" height="51" viewBox="0 0 51 51" fill="none" xmlns="http://www.w3.org/2000/svg">
<path d="M25.5 2L30.9309 5.14687H37.2246L40.3715 10.6285L45.8531 13.7754V20.0691L49 25.5L45.8531 30.9309V37.2246L40.3715 40.3715L37.2246 45.8531H30.9309L25.5 49L20.0691 45.8531H13.7754L10.6285 40.3715L5.14687 37.2246V30.9309L2 25.5L5.14687 20.0691V13.7754L10.6285 10.6285L13.7754 5.14687H20.0691L25.5 2Z" fill="black" stroke="white" stroke-width="2"/>
<path d="M25.5012 42.7074C16.0098 42.7074 8.29492 34.9925 8.29492 25.5012C8.29492 16.0098 16.0098 8.29492 25.5012 8.29492C34.9925 8.29492 42.7074 16.0098 42.7074 25.5012C42.7074 34.9925 34.9925 42.7074 25.5012 42.7074ZM25.5012 9.76684C16.8219 9.76684 9.76684 16.8219 9.76684 25.5012C9.76684 34.1805 16.8219 41.2355 25.5012 41.2355C34.1805 41.2355 41.2355 34.1805 41.2355 25.5012C41.2355 16.8219 34.1805 9.76684 25.5012 9.76684Z" fill="white" stroke="white" stroke-width="2"/>
<path d="M23.6239 31.8955L16.1628 25.957C15.5537 25.4495 15.4522 24.5866 15.9597 23.9775C16.4673 23.3685 17.3302 23.267 17.9392 23.7745L24.3345 28.9009L32.8615 19.3587C33.369 18.8004 34.2826 18.7497 34.841 19.2572C35.3993 19.7648 35.45 20.6784 34.9425 21.2367L25.5526 31.7432C25.0451 32.3015 24.1822 32.3523 23.6239 31.8955Z" fill="white" stroke="white" stroke-width="2"/>
</svg>
